<svg xmlns="http://www.w3.org/2000/svg" xmlns:xlink="http://www.w3.org/1999/xlink" width="300" zoomAndPan="magnify" viewBox="0 0 224.87999 225" height="300" preserveAspectRatio="xMidYMid meet" version="1.0"><defs><clipPath id="1fcc1a9188"><path d="M 22.488281 23.832031 L 200 23.832031 L 200 201.488281 L 22.488281 201.488281 Z M 22.488281 23.832031 " clip-rule="nonzero"/></clipPath></defs><g clip-path="url(#1fcc1a9188)"><path fill="#000000" d="M 178.085938 23.957031 L 44.886719 23.957031 C 44.179688 23.949219 43.476562 23.972656 42.773438 24.03125 C 42.070312 24.089844 41.371094 24.183594 40.675781 24.308594 C 39.980469 24.4375 39.292969 24.597656 38.617188 24.789062 C 37.9375 24.980469 37.269531 25.207031 36.609375 25.464844 C 35.953125 25.722656 35.308594 26.011719 34.679688 26.332031 C 34.050781 26.652344 33.4375 27 32.84375 27.378906 C 32.25 27.757812 31.671875 28.164062 31.117188 28.601562 C 30.558594 29.035156 30.027344 29.496094 29.515625 29.984375 C 29.003906 30.46875 28.515625 30.980469 28.054688 31.511719 C 27.59375 32.046875 27.15625 32.601562 26.75 33.175781 C 26.339844 33.753906 25.960938 34.347656 25.609375 34.960938 C 25.257812 35.570312 24.9375 36.199219 24.648438 36.84375 C 24.355469 37.488281 24.097656 38.144531 23.871094 38.8125 C 23.644531 39.480469 23.453125 40.15625 23.289062 40.84375 C 23.128906 41.53125 23 42.226562 22.90625 42.925781 C 22.8125 43.625 22.753906 44.328125 22.726562 45.035156 C 22.613281 48.058594 22.726562 51.113281 22.726562 54.152344 L 22.726562 177.992188 C 22.6875 180.171875 22.890625 182.328125 23.332031 184.460938 C 23.78125 186.246094 24.441406 187.945312 25.320312 189.566406 C 26.195312 191.183594 27.257812 192.667969 28.511719 194.015625 C 29.761719 195.363281 31.160156 196.539062 32.707031 197.535156 C 34.253906 198.53125 35.902344 199.316406 37.648438 199.898438 C 40.53125 200.75 43.472656 201.097656 46.476562 200.945312 L 111.253906 200.945312 C 114.910156 200.945312 114.910156 195.269531 111.253906 195.269531 L 44.976562 195.269531 C 42.835938 195.328125 40.761719 194.976562 38.757812 194.222656 C 36.753906 193.464844 34.96875 192.359375 33.398438 190.90625 C 32.601562 190.148438 31.894531 189.320312 31.269531 188.417969 C 30.644531 187.511719 30.121094 186.554688 29.695312 185.546875 C 29.269531 184.535156 28.949219 183.488281 28.738281 182.414062 C 28.527344 181.335938 28.429688 180.25 28.441406 179.152344 L 28.441406 45.902344 C 28.433594 45.375 28.457031 44.851562 28.5 44.324219 C 28.546875 43.800781 28.617188 43.277344 28.714844 42.761719 C 28.8125 42.242188 28.933594 41.730469 29.082031 41.222656 C 29.230469 40.71875 29.402344 40.21875 29.597656 39.730469 C 29.792969 39.242188 30.015625 38.765625 30.257812 38.296875 C 30.5 37.828125 30.765625 37.375 31.054688 36.933594 C 31.34375 36.492188 31.652344 36.066406 31.980469 35.652344 C 32.3125 35.242188 32.660156 34.847656 33.03125 34.472656 C 33.398438 34.09375 33.785156 33.738281 34.1875 33.398438 C 34.589844 33.058594 35.011719 32.742188 35.445312 32.445312 C 35.882812 32.144531 36.328125 31.871094 36.792969 31.617188 C 37.253906 31.363281 37.726562 31.132812 38.210938 30.925781 C 38.695312 30.71875 39.191406 30.535156 39.695312 30.378906 C 40.195312 30.21875 40.707031 30.085938 41.222656 29.976562 C 41.738281 29.867188 42.257812 29.785156 42.78125 29.730469 C 43.304688 29.671875 43.832031 29.640625 44.359375 29.632812 L 177.742188 29.632812 C 178.269531 29.625 178.796875 29.640625 179.320312 29.679688 C 179.847656 29.722656 180.367188 29.789062 180.886719 29.882812 C 181.40625 29.972656 181.917969 30.089844 182.425781 30.234375 C 182.933594 30.378906 183.429688 30.542969 183.921875 30.738281 C 184.414062 30.929688 184.894531 31.144531 185.363281 31.382812 C 185.832031 31.621094 186.289062 31.882812 186.730469 32.167969 C 187.175781 32.453125 187.605469 32.757812 188.019531 33.082031 C 188.429688 33.410156 188.828125 33.753906 189.207031 34.121094 C 189.585938 34.484375 189.949219 34.867188 190.289062 35.269531 C 190.632812 35.667969 190.953125 36.085938 191.253906 36.519531 C 191.558594 36.949219 191.835938 37.394531 192.09375 37.855469 C 192.351562 38.316406 192.585938 38.785156 192.796875 39.269531 C 193.007812 39.75 193.195312 40.242188 193.355469 40.746094 C 193.519531 41.246094 193.65625 41.753906 193.769531 42.269531 C 193.882812 42.78125 193.96875 43.300781 194.03125 43.824219 C 194.09375 44.347656 194.128906 44.871094 194.140625 45.398438 L 194.140625 178.835938 C 194.195312 181.839844 193.492188 184.65625 192.035156 187.285156 C 191.332031 188.503906 190.484375 189.609375 189.492188 190.605469 C 188.496094 191.597656 187.390625 192.445312 186.171875 193.148438 C 184.953125 193.847656 183.664062 194.378906 182.308594 194.738281 C 180.949219 195.097656 179.566406 195.277344 178.160156 195.269531 L 157.980469 195.269531 C 154.324219 195.269531 154.324219 200.945312 157.980469 200.945312 L 168.601562 200.945312 C 172.246094 200.945312 175.941406 201.121094 179.585938 200.945312 C 181.421875 200.8125 183.214844 200.453125 184.957031 199.867188 C 186.703125 199.28125 188.347656 198.484375 189.894531 197.480469 C 191.4375 196.480469 192.832031 195.296875 194.074219 193.941406 C 195.320312 192.585938 196.375 191.09375 197.242188 189.46875 C 198.980469 186.113281 199.820312 182.550781 199.765625 178.773438 L 199.765625 45.589844 C 199.757812 44.878906 199.71875 44.175781 199.644531 43.46875 C 199.570312 42.765625 199.460938 42.066406 199.320312 41.375 C 199.175781 40.679688 199 39.996094 198.792969 39.320312 C 198.582031 38.644531 198.339844 37.980469 198.066406 37.328125 C 197.792969 36.671875 197.488281 36.035156 197.152344 35.414062 C 196.816406 34.789062 196.449219 34.183594 196.054688 33.597656 C 195.660156 33.007812 195.238281 32.441406 194.789062 31.898438 C 194.335938 31.351562 193.863281 30.828125 193.359375 30.328125 C 192.859375 29.828125 192.335938 29.351562 191.789062 28.902344 C 191.242188 28.453125 190.671875 28.035156 190.085938 27.640625 C 189.496094 27.246094 188.890625 26.882812 188.265625 26.546875 C 187.640625 26.214844 187.003906 25.910156 186.351562 25.636719 C 185.695312 25.363281 185.03125 25.125 184.355469 24.917969 C 183.679688 24.710938 182.992188 24.535156 182.300781 24.394531 C 181.605469 24.253906 180.90625 24.148438 180.203125 24.074219 C 179.5 24 178.792969 23.960938 178.085938 23.957031 Z M 178.085938 23.957031 " fill-opacity="1" fill-rule="nonzero"/></g><path fill="#000000" d="M 111.238281 65.300781 C 109.695312 65.300781 108.152344 65.378906 106.617188 65.53125 C 105.078125 65.679688 103.550781 65.910156 102.035156 66.210938 C 100.519531 66.511719 99.023438 66.886719 97.546875 67.335938 C 96.066406 67.785156 94.613281 68.304688 93.1875 68.898438 C 91.757812 69.488281 90.363281 70.148438 89 70.878906 C 87.636719 71.605469 86.316406 72.398438 85.03125 73.257812 C 83.746094 74.117188 82.507812 75.039062 81.3125 76.019531 C 80.117188 77 78.976562 78.035156 77.882812 79.128906 C 76.789062 80.222656 75.753906 81.363281 74.773438 82.558594 C 73.792969 83.753906 72.875 84.992188 72.015625 86.277344 C 71.160156 87.5625 70.363281 88.886719 69.636719 90.25 C 68.910156 91.613281 68.25 93.007812 67.660156 94.4375 C 67.066406 95.863281 66.546875 97.316406 66.097656 98.796875 C 65.652344 100.273438 65.277344 101.773438 64.976562 103.289062 C 64.675781 104.804688 64.449219 106.328125 64.296875 107.867188 C 64.144531 109.40625 64.070312 110.945312 64.070312 112.492188 C 64.070312 114.035156 64.148438 115.578125 64.296875 117.117188 C 64.449219 118.652344 64.675781 120.179688 64.976562 121.695312 C 65.28125 123.210938 65.65625 124.707031 66.105469 126.1875 C 66.554688 127.664062 67.074219 129.117188 67.664062 130.546875 C 68.257812 131.972656 68.917969 133.367188 69.644531 134.730469 C 70.375 136.09375 71.167969 137.417969 72.027344 138.703125 C 72.882812 139.988281 73.804688 141.226562 74.785156 142.421875 C 75.765625 143.613281 76.800781 144.757812 77.894531 145.851562 C 78.988281 146.941406 80.128906 147.980469 81.324219 148.960938 C 82.519531 149.941406 83.757812 150.859375 85.042969 151.71875 C 86.328125 152.574219 87.652344 153.367188 89.015625 154.097656 C 90.378906 154.824219 91.773438 155.484375 93.203125 156.074219 C 94.628906 156.667969 96.082031 157.1875 97.5625 157.636719 C 99.039062 158.082031 100.535156 158.457031 102.050781 158.761719 C 103.566406 159.0625 105.09375 159.289062 106.632812 159.4375 C 108.171875 159.589844 109.710938 159.664062 111.257812 159.664062 C 112.800781 159.664062 114.34375 159.589844 115.882812 159.4375 C 117.417969 159.285156 118.945312 159.058594 120.460938 158.757812 C 121.976562 158.457031 123.472656 158.082031 124.953125 157.632812 C 126.429688 157.183594 127.882812 156.664062 129.3125 156.074219 C 130.738281 155.480469 132.132812 154.820312 133.496094 154.09375 C 134.859375 153.363281 136.183594 152.570312 137.46875 151.710938 C 138.753906 150.855469 139.992188 149.933594 141.1875 148.953125 C 142.378906 147.972656 143.523438 146.9375 144.617188 145.84375 C 145.710938 144.753906 146.746094 143.609375 147.726562 142.414062 C 148.707031 141.21875 149.625 139.980469 150.484375 138.695312 C 151.34375 137.410156 152.136719 136.085938 152.863281 134.722656 C 153.59375 133.359375 154.253906 131.964844 154.84375 130.539062 C 155.433594 129.109375 155.953125 127.65625 156.402344 126.179688 C 156.851562 124.699219 157.226562 123.203125 157.527344 121.6875 C 157.828125 120.171875 158.054688 118.644531 158.207031 117.109375 C 158.359375 115.570312 158.433594 114.027344 158.433594 112.484375 C 158.433594 110.9375 158.359375 109.394531 158.207031 107.859375 C 158.054688 106.320312 157.828125 104.792969 157.527344 103.277344 C 157.226562 101.761719 156.851562 100.265625 156.402344 98.785156 C 155.953125 97.304688 155.433594 95.851562 154.84375 94.425781 C 154.25 92.996094 153.589844 91.601562 152.863281 90.238281 C 152.132812 88.875 151.339844 87.550781 150.480469 86.265625 C 149.621094 84.980469 148.703125 83.742188 147.722656 82.546875 C 146.742188 81.351562 145.703125 80.207031 144.609375 79.117188 C 143.519531 78.023438 142.375 76.988281 141.179688 76.007812 C 139.984375 75.027344 138.746094 74.105469 137.457031 73.25 C 136.171875 72.390625 134.847656 71.597656 133.488281 70.867188 C 132.125 70.140625 130.726562 69.480469 129.300781 68.890625 C 127.871094 68.296875 126.417969 67.777344 124.9375 67.328125 C 123.460938 66.882812 121.960938 66.507812 120.445312 66.207031 C 118.929688 65.90625 117.402344 65.679688 115.867188 65.527344 C 114.328125 65.375 112.785156 65.300781 111.238281 65.300781 Z M 111.238281 153.359375 C 109.902344 153.359375 108.566406 153.292969 107.234375 153.160156 C 105.902344 153.03125 104.578125 152.832031 103.265625 152.570312 C 101.953125 152.308594 100.65625 151.984375 99.375 151.597656 C 98.09375 151.207031 96.835938 150.757812 95.597656 150.242188 C 94.363281 149.730469 93.152344 149.160156 91.972656 148.527344 C 90.792969 147.894531 89.648438 147.207031 88.535156 146.464844 C 87.421875 145.71875 86.347656 144.921875 85.3125 144.074219 C 84.277344 143.226562 83.289062 142.328125 82.339844 141.378906 C 81.394531 140.433594 80.496094 139.441406 79.648438 138.40625 C 78.800781 137.371094 78.003906 136.296875 77.257812 135.183594 C 76.515625 134.070312 75.828125 132.925781 75.199219 131.742188 C 74.566406 130.5625 73.996094 129.355469 73.484375 128.117188 C 72.972656 126.878906 72.523438 125.621094 72.132812 124.339844 C 71.746094 123.058594 71.421875 121.761719 71.160156 120.449219 C 70.898438 119.136719 70.703125 117.8125 70.574219 116.480469 C 70.441406 115.148438 70.375 113.8125 70.375 112.476562 C 70.375 111.136719 70.441406 109.800781 70.574219 108.46875 C 70.707031 107.136719 70.902344 105.8125 71.164062 104.5 C 71.425781 103.1875 71.75 101.890625 72.140625 100.609375 C 72.527344 99.328125 72.976562 98.070312 73.492188 96.832031 C 74.003906 95.597656 74.574219 94.390625 75.207031 93.207031 C 75.835938 92.027344 76.523438 90.882812 77.269531 89.769531 C 78.011719 88.65625 78.808594 87.582031 79.660156 86.546875 C 80.507812 85.511719 81.40625 84.523438 82.351562 83.574219 C 83.300781 82.628906 84.289062 81.730469 85.324219 80.882812 C 86.359375 80.03125 87.433594 79.238281 88.546875 78.492188 C 89.660156 77.75 90.808594 77.0625 91.988281 76.429688 C 93.167969 75.800781 94.378906 75.230469 95.613281 74.714844 C 96.851562 74.203125 98.109375 73.753906 99.390625 73.367188 C 100.671875 72.976562 101.96875 72.652344 103.28125 72.390625 C 104.59375 72.128906 105.917969 71.933594 107.25 71.804688 C 108.582031 71.671875 109.917969 71.605469 111.257812 71.605469 C 112.59375 71.605469 113.929688 71.671875 115.261719 71.804688 C 116.59375 71.9375 117.917969 72.132812 119.230469 72.394531 C 120.542969 72.65625 121.839844 72.980469 123.121094 73.367188 C 124.402344 73.757812 125.660156 74.207031 126.898438 74.71875 C 128.132812 75.230469 129.34375 75.804688 130.523438 76.433594 C 131.703125 77.066406 132.851562 77.753906 133.964844 78.496094 C 135.078125 79.242188 136.152344 80.039062 137.1875 80.886719 C 138.21875 81.738281 139.210938 82.632812 140.15625 83.582031 C 141.105469 84.527344 142.003906 85.519531 142.851562 86.554688 C 143.699219 87.589844 144.496094 88.660156 145.242188 89.773438 C 145.984375 90.886719 146.671875 92.035156 147.300781 93.214844 C 147.933594 94.394531 148.503906 95.605469 149.015625 96.839844 C 149.53125 98.078125 149.980469 99.335938 150.367188 100.617188 C 150.757812 101.898438 151.082031 103.195312 151.34375 104.507812 C 151.605469 105.824219 151.800781 107.144531 151.933594 108.476562 C 152.0625 109.808594 152.128906 111.144531 152.128906 112.484375 C 152.128906 113.824219 152.0625 115.15625 151.933594 116.492188 C 151.800781 117.824219 151.605469 119.144531 151.34375 120.460938 C 151.082031 121.773438 150.757812 123.070312 150.367188 124.351562 C 149.980469 125.632812 149.527344 126.890625 149.015625 128.128906 C 148.503906 129.367188 147.929688 130.574219 147.300781 131.753906 C 146.667969 132.9375 145.980469 134.082031 145.238281 135.195312 C 144.492188 136.308594 143.695312 137.382812 142.847656 138.417969 C 141.996094 139.453125 141.097656 140.445312 140.152344 141.390625 C 139.203125 142.339844 138.214844 143.234375 137.179688 144.085938 C 136.144531 144.933594 135.070312 145.730469 133.957031 146.476562 C 132.84375 147.21875 131.695312 147.90625 130.515625 148.535156 C 129.332031 149.167969 128.125 149.738281 126.886719 150.25 C 125.648438 150.761719 124.390625 151.214844 123.109375 151.601562 C 121.828125 151.992188 120.53125 152.316406 119.214844 152.574219 C 117.902344 152.835938 116.578125 153.03125 115.246094 153.164062 C 113.914062 153.292969 112.578125 153.359375 111.238281 153.359375 Z M 111.238281 153.359375 " fill-opacity="1" fill-rule="nonzero"/><path fill="#000000" d="M 178.234375 51.378906 C 178.234375 51.855469 178.1875 52.328125 178.097656 52.796875 C 178.003906 53.265625 177.863281 53.722656 177.683594 54.164062 C 177.5 54.605469 177.273438 55.023438 177.007812 55.421875 C 176.742188 55.816406 176.441406 56.183594 176.105469 56.523438 C 175.765625 56.859375 175.398438 57.164062 175 57.429688 C 174.605469 57.695312 174.183594 57.917969 173.742188 58.101562 C 173.300781 58.285156 172.847656 58.421875 172.378906 58.515625 C 171.910156 58.609375 171.4375 58.65625 170.957031 58.65625 C 170.480469 58.65625 170.007812 58.609375 169.539062 58.515625 C 169.070312 58.421875 168.613281 58.285156 168.171875 58.101562 C 167.730469 57.917969 167.3125 57.695312 166.914062 57.429688 C 166.519531 57.164062 166.152344 56.859375 165.8125 56.523438 C 165.476562 56.183594 165.171875 55.816406 164.90625 55.421875 C 164.640625 55.023438 164.417969 54.605469 164.234375 54.164062 C 164.050781 53.722656 163.914062 53.265625 163.820312 52.796875 C 163.726562 52.328125 163.679688 51.855469 163.679688 51.378906 C 163.679688 50.898438 163.726562 50.425781 163.820312 49.957031 C 163.914062 49.488281 164.050781 49.035156 164.234375 48.59375 C 164.417969 48.152344 164.640625 47.730469 164.90625 47.335938 C 165.171875 46.9375 165.476562 46.570312 165.8125 46.230469 C 166.152344 45.894531 166.519531 45.59375 166.914062 45.328125 C 167.3125 45.0625 167.730469 44.835938 168.171875 44.652344 C 168.613281 44.472656 169.070312 44.332031 169.539062 44.238281 C 170.007812 44.148438 170.480469 44.101562 170.957031 44.101562 C 171.4375 44.101562 171.910156 44.148438 172.378906 44.238281 C 172.847656 44.332031 173.300781 44.472656 173.742188 44.652344 C 174.183594 44.835938 174.605469 45.0625 175 45.328125 C 175.398438 45.59375 175.765625 45.894531 176.105469 46.230469 C 176.441406 46.570312 176.742188 46.9375 177.007812 47.335938 C 177.273438 47.730469 177.5 48.152344 177.683594 48.59375 C 177.863281 49.035156 178.003906 49.488281 178.097656 49.957031 C 178.1875 50.425781 178.234375 50.898438 178.234375 51.378906 Z M 178.234375 51.378906 " fill-opacity="1" fill-rule="nonzero"/></svg>