<svg xmlns="http://www.w3.org/2000/svg" xmlns:xlink="http://www.w3.org/1999/xlink" width="300" zoomAndPan="magnify" viewBox="0 0 224.87999 225" height="300" preserveAspectRatio="xMidYMid meet" version="1.0"><defs><clipPath id="cb8ea51aed"><path d="M 22.488281 47.550781 L 201.640625 47.550781 L 201.640625 177.230469 L 22.488281 177.230469 Z M 22.488281 47.550781 " clip-rule="nonzero"/></clipPath></defs><g clip-path="url(#cb8ea51aed)"><path fill="#000000" d="M 186.144531 47.550781 L 37.988281 47.550781 C 29.46875 47.550781 22.554688 54.46875 22.554688 62.988281 L 22.554688 161.792969 C 22.554688 170.316406 29.46875 177.230469 37.988281 177.230469 L 186.144531 177.230469 C 194.664062 177.230469 201.578125 170.316406 201.578125 161.792969 L 201.578125 62.988281 C 201.578125 54.46875 194.664062 47.550781 186.144531 47.550781 Z M 143.765625 106.277344 L 194.355469 58.757812 C 195.003906 60.054688 195.402344 61.476562 195.402344 62.988281 L 195.402344 161.792969 C 195.402344 162.964844 195.15625 164.078125 194.753906 165.128906 Z M 186.144531 53.726562 C 187.472656 53.726562 188.738281 54.003906 189.847656 54.527344 L 112.066406 127.582031 L 34.28125 54.527344 C 35.394531 54.003906 36.660156 53.726562 37.988281 53.726562 Z M 29.375 165.128906 C 28.972656 164.078125 28.726562 162.964844 28.726562 161.792969 L 28.726562 62.988281 C 28.726562 61.476562 29.128906 60.054688 29.777344 58.789062 L 80.367188 106.308594 Z M 37.988281 171.054688 C 36.320312 171.054688 34.808594 170.59375 33.449219 169.820312 L 84.871094 110.507812 L 109.933594 134.066406 C 110.523438 134.621094 111.292969 134.898438 112.035156 134.898438 C 112.773438 134.898438 113.546875 134.621094 114.132812 134.066406 L 139.195312 110.507812 L 190.679688 169.820312 C 189.324219 170.59375 187.808594 171.054688 186.144531 171.054688 Z M 37.988281 171.054688 " fill-opacity="1" fill-rule="nonzero"/></g></svg>